<svg id="Layer_1" enable-background="new 0 0 128 128" height="512" viewBox="0 0 128 128" width="512" xmlns="http://www.w3.org/2000/svg"><g fill="#fd852b"><path d="m89.8 25.1c-1.3 0-2.4-1.1-2.4-2.4s1.1-2.4 2.4-2.4 2.4 1.1 2.4 2.4c.1 1.4-1 2.4-2.4 2.4z"/><path d="m89.8 34.1c-1.3 0-2.4-1.1-2.4-2.4s1.1-2.4 2.4-2.4 2.4 1.1 2.4 2.4c.1 1.4-1 2.4-2.4 2.4z"/><path d="m85.3 29.6c-1.3 0-2.4-1.1-2.4-2.4s1.1-2.4 2.4-2.4 2.4 1.1 2.4 2.4c0 1.4-1 2.4-2.4 2.4z"/><path d="m94.3 29.6c-1.3 0-2.4-1.1-2.4-2.4s1.1-2.4 2.4-2.4 2.4 1.1 2.4 2.4c.1 1.4-1 2.4-2.4 2.4z"/><path d="m22 103.1c-1.3 0-2.4-1.1-2.4-2.4s1.1-2.4 2.4-2.4 2.4 1.1 2.4 2.4c0 1.4-1.1 2.4-2.4 2.4z"/><path d="m22 112.1c-1.3 0-2.4-1.1-2.4-2.4s1.1-2.4 2.4-2.4 2.4 1.1 2.4 2.4c0 1.4-1.1 2.4-2.4 2.4z"/><path d="m17.5 107.6c-1.3 0-2.4-1.1-2.4-2.4s1.1-2.4 2.4-2.4 2.4 1.1 2.4 2.4c0 1.4-1.1 2.4-2.4 2.4z"/><path d="m26.5 107.6c-1.3 0-2.4-1.1-2.4-2.4s1.1-2.4 2.4-2.4 2.4 1.1 2.4 2.4c0 1.4-1.1 2.4-2.4 2.4z"/></g><path d="m37.8 15.5h6.5v6.5h-6.5z" fill="#fd748c" transform="matrix(.707 -.707 .707 .707 -1.241 34.522)"/><path d="m101 106h6.5v6.5h-6.5z" fill="#fd748c" transform="matrix(.707 -.707 .707 .707 -46.717 105.699)"/><ellipse cx="64" cy="67.1" fill="#fc6928" rx="39.3" ry="16.4"/><path d="m110.7 44.2-8.7 39.3-1.6 7.4c0 3.8-16.3 6.9-36.4 6.9s-36.4-3.1-36.4-6.9l-1.6-7.4-8.7-39.3 30.2 18.5 16.5-26.1 16.5 26.1z" fill="#f9d12f"/><path d="m60.6 66.5h6.7v6.7h-6.7z" fill="#2ec3fc" transform="matrix(.707 -.707 .707 .707 -30.662 65.72)"/><path d="m102 83.5-1.6 7.4c0 3.8-16.3 6.9-36.4 6.9s-36.4-3.1-36.4-6.9l-1.6-7.4c7 2.6 21.4 4.4 38 4.4s31-1.8 38-4.4z" fill="#fd852b"/><circle cx="110.7" cy="44.6" fill="#fd852b" r="7.8"/><circle cx="64" cy="36.7" fill="#fc6928" r="7.8"/><circle cx="17.3" cy="44.6" fill="#fc6928" r="7.8"/><path d="m64 65.1v4.8h4.8z" fill="#1ba4fc"/><path d="m59.2 69.9h4.8v4.7z" fill="#1ba4fc"/></svg>